<svg xmlns="http://www.w3.org/2000/svg" xmlns:xlink="http://www.w3.org/1999/xlink" width="193" height="193" viewBox="0 0 193 193">
    <defs>
        <path id="prefix__a" d="M0 0.008L193 0.008 193 193 0 193z"/>
    </defs>
    <g fill="none" fill-rule="evenodd">
        <mask id="prefix__b" fill="#fff">
            <use xlink:href="#prefix__a"/>
        </mask>
        <path fill="#FFF" d="M114.624 73.307V7.857c3-.801 6.334-.035 8.683 2.314l59.522 59.522c1.03 1.03 1.777 2.266 2.207 3.614h-70.412zM182.83 82.4L89.938 175.29c-.479.48-1.002.887-1.552 1.235v-69.44H98.1c9.111 0 16.524-7.413 16.524-16.524v-9.715h43.208l-21.813 21.814c-.736.736-1.104 1.7-1.104 2.665 0 .965.367 1.93 1.104 2.666 1.472 1.472 3.859 1.472 5.33 0l27.142-27.142.003-.002h15.578c-.352.555-.766 1.076-1.242 1.552zM67.22 99.545l11.178-11.177c1.472-1.472 1.473-3.86 0-5.331-1.472-1.472-3.859-1.473-5.33 0l-16.51 16.508H45.576l34.079-34.078c1.471-1.472 1.472-3.86 0-5.332s-3.86-1.472-5.332 0l-39.409 39.41H21.226l85.858-85.858V90.56c0 4.954-4.03 8.984-8.984 8.984H67.22zm13.626 77.94c-1.322-.42-2.567-1.147-3.614-2.195L17.71 115.768c-2.35-2.35-3.115-5.684-2.314-8.683h65.45v70.4zM188.16 64.363L128.638 4.84c-6.443-6.442-16.926-6.442-23.368 0L12.379 97.731c-3.221 3.221-4.832 7.453-4.832 11.684 0 4.231 1.61 8.462 4.832 11.684l14.934 14.934-16.398 16.399c-.737.736-1.104 1.7-1.104 2.665 0 .965.367 1.93 1.104 2.666 1.472 1.472 3.859 1.472 5.33 0l16.4-16.399 6.83 6.83-38.37 38.371c-.737.736-1.105 1.7-1.105 2.666 0 .964.368 1.93 1.104 2.665 1.472 1.472 3.859 1.472 5.331 0l38.37-38.37 27.096 27.095c6.443 6.442 16.926 6.442 23.368 0L188.16 87.73c3.121-3.12 4.84-7.27 4.84-11.684s-1.719-8.563-4.84-11.684z" mask="url(#prefix__b)"/>
    </g>
</svg>
